<svg width="299" height="80" viewBox="0 0 299 80" fill="none" xmlns="http://www.w3.org/2000/svg">
<path d="M97.1903 25.7515C99.3812 26.8485 101.067 28.4025 102.245 30.4106C103.422 32.4187 104.013 34.768 104.013 37.4586C104.013 40.1493 103.413 42.5108 102.214 44.5372C101.015 46.5666 99.3295 48.1298 97.1599 49.2268C94.9903 50.3237 92.4768 50.8722 89.6256 50.8722H78.3394V67.5798H72.9443V24.106H89.6286C92.4829 24.106 95.0024 24.6545 97.1964 25.7515H97.1903ZM89.1266 45.9054C91.9808 45.9054 94.2539 45.1405 95.9488 43.6078C97.6437 42.0751 98.4927 40.0274 98.4927 37.4586C98.4927 34.8899 97.6559 32.8514 95.9823 31.34C94.3086 29.8286 92.0447 29.0729 89.1905 29.0729H78.3364V45.9023H89.1266V45.9054Z" fill="currentColor"/>
<path d="M108.294 60.1904C106.97 57.7466 106.31 54.931 106.31 51.7437C106.31 48.5564 106.97 45.7408 108.294 43.297C109.618 40.8532 111.468 38.9487 113.844 37.5836C116.221 36.2185 118.941 35.5329 121.999 35.5329C125.057 35.5329 127.778 36.2154 130.154 37.5836C132.531 38.9487 134.381 40.8532 135.704 43.297C137.028 45.7408 137.688 48.5564 137.688 51.7437C137.688 54.931 137.028 57.7466 135.704 60.1904C134.381 62.6342 132.531 64.5387 130.154 65.9038C127.778 67.269 125.057 67.9546 121.999 67.9546C118.941 67.9546 116.221 67.272 113.844 65.9038C111.468 64.5387 109.618 62.6342 108.294 60.1904ZM131.177 57.7679C132.044 55.9884 132.479 53.9803 132.479 51.7437C132.479 49.5071 132.044 47.499 131.177 45.7195C130.309 43.9399 129.077 42.5535 127.486 41.5571C125.894 40.5637 124.065 40.067 121.996 40.067C119.927 40.067 118.098 40.5637 116.507 41.5571C114.915 42.5504 113.686 43.9369 112.816 45.7195C111.948 47.499 111.513 49.5071 111.513 51.7437C111.513 53.9803 111.948 55.9884 112.816 57.7679C113.683 59.5475 114.915 60.9339 116.507 61.9304C118.098 62.9237 119.927 63.4204 121.996 63.4204C124.065 63.4204 125.894 62.9237 127.486 61.9304C129.077 60.937 130.306 59.5505 131.177 57.7679Z" fill="currentColor"/>
<path d="M172.697 43.0471C174 45.491 174.651 48.3888 174.651 51.7407C174.651 55.0925 174 57.7436 172.697 60.1874C171.395 62.6312 169.587 64.5357 167.272 65.9008C164.956 67.2659 162.351 67.9515 159.457 67.9515C156.895 67.9515 154.701 67.4853 152.885 66.5529C151.065 65.6205 149.638 64.3467 148.606 62.7348V80H143.522V35.9046H147.925L148.606 40.9964C151.254 37.352 154.872 35.5298 159.461 35.5298C162.397 35.5298 165.011 36.1728 167.305 37.4556C169.6 38.7385 171.398 40.6033 172.7 43.0441L172.697 43.0471ZM169.441 51.7437C169.441 48.3065 168.48 45.5031 166.557 43.3275C164.633 41.1549 162.102 40.067 158.958 40.067C156.932 40.067 155.124 40.5546 153.533 41.5266C151.941 42.4986 150.712 43.8668 149.842 45.625C148.975 47.3832 148.54 49.3822 148.54 51.6188C148.54 53.8554 148.975 55.9366 149.842 57.7375C150.709 59.5383 151.941 60.937 153.533 61.9304C155.124 62.9237 156.935 63.4204 158.958 63.4204C162.102 63.4204 164.633 62.3326 166.557 60.16C168.48 57.9873 169.441 55.1809 169.441 51.7437Z" fill="currentColor"/>
<path d="M194.746 67.9515C191.688 67.9515 188.998 67.269 186.682 65.9008C184.367 64.5357 182.568 62.619 181.287 60.1569C180.006 57.6948 179.364 54.867 179.364 51.6797C179.364 48.4924 180.015 45.6768 181.318 43.233C182.62 40.7892 184.449 38.8969 186.807 37.5501C189.165 36.2032 191.874 35.5329 194.932 35.5329C198.653 35.5329 201.724 36.5262 204.143 38.513C206.562 40.4997 208.08 43.233 208.701 46.7098H203.552C203.056 44.6804 202.022 43.0654 200.452 41.8648C198.881 40.6643 196.98 40.064 194.746 40.064C191.728 40.064 189.278 41.1396 187.398 43.294C185.517 45.4483 184.577 48.2425 184.577 51.6767C184.577 55.1108 185.517 57.9812 187.398 60.1539C189.278 62.3265 191.728 63.4143 194.746 63.4143C197.062 63.4143 199.006 62.814 200.576 61.6134C202.147 60.4129 203.16 58.7552 203.616 56.6466H208.701C208.041 60.1661 206.489 62.9298 204.048 64.9379C201.608 66.946 198.507 67.9515 194.746 67.9515Z" fill="currentColor"/>
<path d="M214.778 60.1904C213.454 57.7466 212.794 54.931 212.794 51.7437C212.794 48.5564 213.454 45.7408 214.778 43.297C216.101 40.8532 217.951 38.9487 220.328 37.5836C222.704 36.2185 225.425 35.5329 228.483 35.5329C231.541 35.5329 234.261 36.2154 236.638 37.5836C239.015 38.9487 240.865 40.8532 242.188 43.297C243.512 45.7408 244.172 48.5564 244.172 51.7437C244.172 54.931 243.512 57.7466 242.188 60.1904C240.865 62.6342 239.015 64.5387 236.638 65.9038C234.261 67.269 231.541 67.9546 228.483 67.9546C225.425 67.9546 222.704 67.272 220.328 65.9038C217.951 64.5387 216.101 62.6342 214.778 60.1904ZM237.663 57.7679C238.531 55.9884 238.966 53.9803 238.966 51.7437C238.966 49.5071 238.531 47.499 237.663 45.7195C236.796 43.9399 235.564 42.5535 233.972 41.5571C232.381 40.5637 230.552 40.067 228.483 40.067C226.414 40.067 224.585 40.5637 222.994 41.5571C221.402 42.5504 220.173 43.9369 219.303 45.7195C218.435 47.499 218 49.5071 218 51.7437C218 53.9803 218.435 55.9884 219.303 57.7679C220.17 59.5475 221.402 60.9339 222.994 61.9304C224.585 62.9237 226.414 63.4204 228.483 63.4204C230.552 63.4204 232.381 62.9237 233.972 61.9304C235.564 60.937 236.793 59.5505 237.663 57.7679Z" fill="currentColor"/>
<path d="M266.069 40.8745H263.525C260.507 40.8745 258.346 41.8892 257.044 43.9186C255.741 45.948 255.09 48.4528 255.09 51.4329V67.5798H250.006V35.9076H254.409L255.09 40.6886C256 39.2382 257.178 38.0803 258.626 37.2118C260.075 36.3434 262.08 35.9076 264.642 35.9076H266.069V40.8745Z" fill="currentColor"/>
<path d="M299 67.5798H293.915V50.2537C293.915 46.9841 293.181 44.4884 291.712 42.7698C290.245 41.0512 288.124 40.1919 285.355 40.1919C282.379 40.1919 280.042 41.228 278.347 43.297C276.652 45.366 275.803 48.1816 275.803 51.7437V67.5798H270.719V35.9076H275.122L275.803 40.1919C278.201 37.0869 281.673 35.5329 286.222 35.5329C290.069 35.5329 293.157 36.6908 295.494 39.0097C297.831 41.3285 299 44.9729 299 49.9398V67.5798Z" fill="currentColor"/>
<path d="M17.9558 20.4251H15.0194C14.8338 18.7796 14.6908 13.8737 18.6435 9.66862L20.7614 11.6645C17.0855 15.5771 17.9193 20.227 17.9558 20.4251Z" fill="currentColor"/>
<path d="M6.84308 20.1204C4.18965 20.1204 2.03223 17.9599 2.03223 15.3028C2.03223 12.6457 4.18965 10.4822 6.84308 10.4822C9.4965 10.4822 11.6539 12.6426 11.6539 15.3028C11.6539 17.963 9.4965 20.1204 6.84308 20.1204ZM6.84308 13.3953C5.79327 13.3953 4.94125 14.2485 4.94125 15.2998C4.94125 16.351 5.79327 17.2042 6.84308 17.2042C7.89288 17.2042 8.7449 16.351 8.7449 15.2998C8.7449 14.2485 7.89288 13.3953 6.84308 13.3953Z" fill="currentColor"/>
<path d="M34.6492 20.1204C31.9958 20.1204 29.8384 17.9599 29.8384 15.3028C29.8384 12.6457 31.9958 10.4822 34.6492 10.4822C37.3027 10.4822 39.4601 12.6426 39.4601 15.3028C39.4601 17.963 37.3027 20.1204 34.6492 20.1204ZM34.6492 13.3953C33.5994 13.3953 32.7474 14.2485 32.7474 15.2998C32.7474 16.351 33.5994 17.2042 34.6492 17.2042C35.6991 17.2042 36.5511 16.351 36.5511 15.2998C36.5511 14.2485 35.6991 13.3953 34.6492 13.3953Z" fill="currentColor"/>
<path d="M25.134 9.63815C22.4806 9.63815 20.3232 7.47772 20.3232 4.8206C20.3232 2.16348 22.4806 0 25.134 0C27.7875 0 29.9449 2.16043 29.9449 4.8206C29.9449 7.48076 27.7875 9.63815 25.134 9.63815ZM25.134 2.91613C24.0842 2.91613 23.2322 3.76933 23.2322 4.8206C23.2322 5.87187 24.0842 6.72507 25.134 6.72507C26.1839 6.72507 27.0359 5.87187 27.0359 4.8206C27.0359 3.76933 26.1839 2.91613 25.134 2.91613Z" fill="currentColor"/>
<path d="M41.4902 29.2923C41.4902 26.3548 38.6176 23.9659 35.0879 23.9659C33.1556 23.9659 31.4212 24.685 30.2466 25.8155C29.072 24.685 27.3376 23.9659 25.4023 23.9659C23.467 23.9659 21.7386 24.685 20.561 25.8155C19.3864 24.685 17.655 23.9659 15.7197 23.9659C13.7844 23.9659 12.0256 24.6972 10.851 25.8429C9.70995 24.7825 8.06068 24.1121 6.22276 24.1121C2.7934 24.1121 0 26.4371 0 29.2923C0 29.5117 0.0212982 29.7311 0.0547703 29.9566V29.9657C0.0547703 29.9657 0.0547703 29.9749 0.0547703 29.9779L3.18898 65.0019L13.1302 67.5768H38.9189L41.4597 29.7981V29.7585C41.478 29.6001 41.4871 29.4416 41.4871 29.2893L41.4902 29.2923ZM6.12539 62.7409L3.13116 29.2466C3.16463 28.0186 4.53699 27.0283 6.22276 27.0283C7.90854 27.0283 9.31741 28.046 9.31741 29.2954C9.31741 29.3228 9.31741 29.3533 9.31741 29.3837V29.4172C9.32349 29.5361 9.32958 29.658 9.34479 29.7829V29.8164C9.34479 29.8377 9.35088 29.8591 9.35392 29.8835L11.6544 64.1731L6.12539 62.7409ZM14.822 64.6667L12.4699 29.6305L12.4486 29.2771C12.4607 27.9546 13.9244 26.8851 15.7258 26.8851C17.5272 26.8851 19.003 27.9668 19.003 29.2954H22.1281C22.1281 27.9668 23.5978 26.8851 25.4053 26.8851C27.2128 26.8851 28.6856 27.9668 28.6856 29.2954H31.8106C31.8106 27.9668 33.2804 26.8851 35.0879 26.8851C36.8954 26.8851 38.359 27.9637 38.3651 29.2893L35.9886 64.6698H14.8251L14.822 64.6667Z" fill="currentColor"/>
<path d="M25.6548 55.9153C24.1973 55.9153 22.7428 55.4491 21.5834 54.5563C19.6086 53.0327 18.7139 50.4914 19.1278 47.5783C20.1137 40.6887 25.2684 36.8066 25.4875 36.6451L26.5068 35.8924C27.1246 35.4354 27.9918 35.926 27.9188 36.6908L27.8001 37.9523C27.581 40.2834 28.3387 42.1635 30.5935 44.8816C32.0997 46.7007 32.6779 48.9282 32.1758 50.9941C31.7011 52.9596 30.3105 54.5197 28.2626 55.3912C27.4349 55.7447 26.5434 55.9153 25.6579 55.9153H25.6548ZM25.0767 41.0726C23.8169 42.6145 22.3715 44.9699 21.9394 47.9927C21.6716 49.8606 22.1494 51.372 23.2874 52.2496C24.3372 53.0571 25.8161 53.2399 27.0546 52.7127C28.2504 52.2039 29.0203 51.372 29.2789 50.3116C29.5619 49.1506 29.1998 47.8495 28.2839 46.7495C26.5768 44.6896 25.5422 42.8948 25.0797 41.0787L25.0767 41.0726Z" fill="currentColor"/>
</svg>
