<svg width="976" height="262" viewBox="0 0 976 262" fill="none" xmlns="http://www.w3.org/2000/svg">
<path d="M317.282 84.5747C324.432 88.1469 329.934 93.2074 333.777 99.7465C337.62 106.286 339.547 113.936 339.547 122.698C339.547 131.459 337.59 139.15 333.678 145.748C329.765 152.357 324.263 157.447 317.183 161.019C310.102 164.591 301.9 166.377 292.595 166.377H255.762V220.784H238.155V79.2164H292.604C301.919 79.2164 310.142 81.0025 317.302 84.5747H317.282ZM290.966 150.203C300.281 150.203 307.699 147.713 313.23 142.722C318.762 137.731 321.532 131.063 321.532 122.698C321.532 114.333 318.802 107.695 313.34 102.773C307.878 97.8513 300.489 95.3904 291.174 95.3904H255.752V150.194H290.966V150.203Z" fill="#001A72"/>
<path d="M353.519 196.721C349.199 188.763 347.044 179.594 347.044 169.215C347.044 158.836 349.199 149.668 353.519 141.71C357.839 133.752 363.877 127.55 371.633 123.105C379.388 118.659 388.266 116.427 398.247 116.427C408.227 116.427 417.105 118.649 424.861 123.105C432.617 127.55 438.654 133.752 442.974 141.71C447.294 149.668 449.449 158.836 449.449 169.215C449.449 179.594 447.294 188.763 442.974 196.721C438.654 204.679 432.617 210.881 424.861 215.326C417.105 219.771 408.227 222.004 398.247 222.004C388.266 222.004 379.388 219.781 371.633 215.326C363.877 210.881 357.839 204.679 353.519 196.721ZM428.197 188.833C431.028 183.038 432.448 176.499 432.448 169.215C432.448 161.932 431.028 155.393 428.197 149.598C425.367 143.803 421.345 139.288 416.152 136.044C410.958 132.809 404.99 131.192 398.237 131.192C391.484 131.192 385.516 132.809 380.322 136.044C375.128 139.279 371.116 143.793 368.276 149.598C365.446 155.393 364.026 161.932 364.026 169.215C364.026 176.499 365.446 183.038 368.276 188.833C371.106 194.627 375.128 199.142 380.322 202.387C385.516 205.622 391.484 207.239 398.237 207.239C404.99 207.239 410.958 205.622 416.152 202.387C421.345 199.152 425.357 194.637 428.197 188.833Z" fill="#001A72"/>
<path d="M563.701 140.896C567.951 148.854 570.077 158.29 570.077 169.205C570.077 180.12 567.951 188.753 563.701 196.711C559.451 204.669 553.552 210.871 545.995 215.316C538.438 219.762 529.937 221.994 520.493 221.994C512.131 221.994 504.971 220.476 499.043 217.44C493.104 214.403 488.447 210.256 485.08 205.006V261.229H468.486V117.637H482.856L485.08 134.218C493.72 122.35 505.527 116.417 520.503 116.417C530.086 116.417 538.616 118.51 546.104 122.688C553.592 126.865 559.461 132.938 563.711 140.886L563.701 140.896ZM553.075 169.215C553.075 158.023 549.937 148.894 543.661 141.809C537.385 134.734 529.123 131.192 518.864 131.192C512.25 131.192 506.352 132.779 501.158 135.945C495.964 139.11 491.952 143.565 489.112 149.291C486.282 155.016 484.862 161.525 484.862 168.808C484.862 176.092 486.282 182.869 489.112 188.733C491.942 194.598 495.964 199.152 501.158 202.387C506.352 205.622 512.26 207.239 518.864 207.239C529.123 207.239 537.385 203.697 543.661 196.622C549.937 189.547 553.075 180.408 553.075 169.215Z" fill="#001A72"/>
<path d="M635.658 221.994C625.678 221.994 616.899 219.771 609.342 215.316C601.785 210.871 595.916 204.629 591.735 196.612C587.554 188.594 585.459 179.386 585.459 169.007C585.459 158.628 587.584 149.459 591.835 141.501C596.085 133.543 602.053 127.381 609.749 122.995C617.446 118.61 626.284 116.427 636.264 116.427C648.409 116.427 658.429 119.661 666.324 126.131C674.219 132.601 679.175 141.501 681.2 152.823H664.398C662.779 146.215 659.403 140.955 654.278 137.046C649.154 133.136 642.948 131.182 635.658 131.182C625.807 131.182 617.813 134.684 611.676 141.7C605.539 148.715 602.47 157.814 602.47 168.997C602.47 180.18 605.539 189.527 611.676 196.602C617.813 203.677 625.807 207.219 635.658 207.219C643.216 207.219 649.561 205.264 654.686 201.355C659.81 197.445 663.117 192.047 664.606 185.181H681.2C679.045 196.642 673.981 205.642 666.016 212.181C658.052 218.72 647.933 221.994 635.658 221.994Z" fill="#001A72"/>
<path d="M701.032 196.721C696.712 188.763 694.557 179.594 694.557 169.215C694.557 158.836 696.712 149.668 701.032 141.71C705.352 133.752 711.389 127.55 719.145 123.105C726.901 118.659 735.779 116.427 745.759 116.427C755.74 116.427 764.618 118.649 772.374 123.105C780.129 127.55 786.167 133.752 790.487 141.71C794.807 149.668 796.962 158.836 796.962 169.215C796.962 179.594 794.807 188.763 790.487 196.721C786.167 204.679 780.129 210.881 772.374 215.326C764.618 219.771 755.74 222.004 745.759 222.004C735.779 222.004 726.901 219.781 719.145 215.326C711.389 210.881 705.352 204.679 701.032 196.721ZM775.72 188.833C778.55 183.038 779.971 176.499 779.971 169.215C779.971 161.932 778.55 155.393 775.72 149.598C772.89 143.803 768.868 139.288 763.674 136.044C758.481 132.809 752.512 131.192 745.759 131.192C739.007 131.192 733.038 132.809 727.845 136.044C722.651 139.279 718.639 143.793 715.799 149.598C712.968 155.393 711.548 161.932 711.548 169.215C711.548 176.499 712.968 183.038 715.799 188.833C718.629 194.627 722.651 199.142 727.845 202.387C733.038 205.622 739.007 207.239 745.759 207.239C752.512 207.239 758.481 205.622 763.674 202.387C768.868 199.152 772.88 194.637 775.72 188.833Z" fill="#001A72"/>
<path d="M868.423 133.821H860.121C850.27 133.821 843.219 137.125 838.969 143.734C834.718 150.342 832.593 158.499 832.593 168.203V220.784H815.999V117.647H830.369L832.593 133.216C835.562 128.493 839.405 124.722 844.132 121.894C848.859 119.066 855.404 117.647 863.765 117.647H868.423V133.821Z" fill="#001A72"/>
<path d="M975.892 220.784H959.298V164.363C959.298 153.716 956.905 145.589 952.108 139.993C947.322 134.397 940.4 131.598 931.363 131.598C921.651 131.598 914.024 134.972 908.493 141.71C902.962 148.447 900.191 157.616 900.191 169.215V220.784H883.597V117.647H897.966L900.191 131.598C908.016 121.487 919.347 116.427 934.193 116.427C946.746 116.427 956.825 120.197 964.452 127.748C972.079 135.3 975.892 147.167 975.892 163.341V220.784Z" fill="#001A72"/>
<path d="M58.6985 67.2299H49.1154C48.5097 61.8716 48.0429 45.8961 60.9428 32.2027L67.8545 38.7021C55.8583 51.4429 58.5793 66.5849 58.6985 67.2299Z" fill="#001A72"/>
<path d="M22.4318 66.2376C13.7723 66.2376 6.73145 59.2024 6.73145 50.5498C6.73145 41.8972 13.7723 34.8521 22.4318 34.8521C31.0913 34.8521 38.1321 41.8873 38.1321 50.5498C38.1321 59.2123 31.0913 66.2376 22.4318 66.2376ZM22.4318 44.3382C19.0057 44.3382 16.2251 47.1166 16.2251 50.5399C16.2251 53.9632 19.0057 56.7416 22.4318 56.7416C25.8579 56.7416 28.6384 53.9632 28.6384 50.5399C28.6384 47.1166 25.8579 44.3382 22.4318 44.3382Z" fill="#001A72"/>
<path d="M113.178 66.2376C104.518 66.2376 97.4777 59.2024 97.4777 50.5498C97.4777 41.8972 104.518 34.8521 113.178 34.8521C121.838 34.8521 128.878 41.8873 128.878 50.5498C128.878 59.2123 121.838 66.2376 113.178 66.2376ZM113.178 44.3382C109.752 44.3382 106.971 47.1166 106.971 50.5399C106.971 53.9632 109.752 56.7416 113.178 56.7416C116.604 56.7416 119.385 53.9632 119.385 50.5399C119.385 47.1166 116.604 44.3382 113.178 44.3382Z" fill="#001A72"/>
<path d="M82.1249 32.1035C73.4654 32.1035 66.4245 25.0683 66.4245 16.4157C66.4245 7.76313 73.4654 0.718018 82.1249 0.718018C90.7844 0.718018 97.8252 7.75321 97.8252 16.4157C97.8252 25.0782 90.7844 32.1035 82.1249 32.1035ZM82.1249 10.214C78.6988 10.214 75.9182 12.9924 75.9182 16.4157C75.9182 19.8391 78.6988 22.6174 82.1249 22.6174C85.5509 22.6174 88.3315 19.8391 88.3315 16.4157C88.3315 12.9924 85.5509 10.214 82.1249 10.214Z" fill="#001A72"/>
<path d="M135.502 96.1049C135.502 86.5394 126.127 78.76 114.608 78.76C108.302 78.76 102.641 81.1018 98.8082 84.7831C94.975 81.1018 89.3145 78.76 82.9986 78.76C76.6827 78.76 71.0421 81.1018 67.199 84.7831C63.3658 81.1018 57.7152 78.76 51.3993 78.76C45.0835 78.76 39.3435 81.1415 35.5103 84.8724C31.7863 81.4193 26.4039 79.2363 20.4058 79.2363C9.21398 79.2363 0.0976562 86.8073 0.0976562 96.1049C0.0976562 96.8193 0.167163 97.5338 0.2764 98.268V98.2978C0.2764 98.2978 0.2764 98.3276 0.2764 98.3375L10.505 212.389L42.9484 220.774H127.111L135.403 97.7521V97.6231C135.462 97.1071 135.492 96.5911 135.492 96.095L135.502 96.1049ZM20.088 205.026L10.3163 95.9561C10.4255 91.9572 14.9042 88.7323 20.4058 88.7323C25.9074 88.7323 30.5053 92.0465 30.5053 96.1148C30.5053 96.2041 30.5053 96.3033 30.5053 96.4026V96.5117C30.5251 96.8987 30.545 97.2956 30.5946 97.7024V97.8116C30.5946 97.8811 30.6145 97.9505 30.6244 98.0299L38.132 209.69L20.088 205.026ZM48.4698 211.298L40.7934 97.2063L40.7239 96.0553C40.7636 91.7488 45.5403 88.266 51.4192 88.266C57.2981 88.266 62.1145 91.7885 62.1145 96.1148H72.3133C72.3133 91.7885 77.1098 88.266 83.0086 88.266C88.9074 88.266 93.7138 91.7885 93.7138 96.1148H103.913C103.913 91.7885 108.709 88.266 114.608 88.266C120.507 88.266 125.283 91.7786 125.303 96.095L117.547 211.307H48.4797L48.4698 211.298Z" fill="#001A72"/>
<path d="M83.8229 182.8C79.0661 182.8 74.3193 181.281 70.5357 178.374C64.0907 173.413 61.1711 165.137 62.5217 155.651C65.7392 133.216 82.5617 120.574 83.2767 120.048L86.6035 117.597C88.6194 116.109 91.4496 117.707 91.2113 120.197L90.824 124.305C90.109 131.896 92.5817 138.018 99.9403 146.869C104.856 152.793 106.743 160.047 105.104 166.774C103.555 173.174 99.0167 178.255 92.3334 181.093C89.6323 182.244 86.7226 182.8 83.8328 182.8H83.8229ZM81.9361 134.466C77.8248 139.487 73.1077 147.157 71.6976 157.001C70.8237 163.083 72.3828 168.005 76.0968 170.863C79.5229 173.492 84.3492 174.087 88.391 172.371C92.2937 170.714 94.8062 168.005 95.6503 164.552C96.5738 160.771 95.3921 156.534 92.403 152.952C86.8319 146.244 83.4554 140.4 81.946 134.486L81.9361 134.466Z" fill="#001A72"/>
</svg>
