<svg width="1280" height="448" viewBox="0 0 1280 448" fill="none" xmlns="http://www.w3.org/2000/svg">
<path d="M469.282 158.575C476.432 162.147 481.934 167.207 485.777 173.747C489.62 180.286 491.547 187.936 491.547 196.698C491.547 205.459 489.59 213.15 485.678 219.748C481.765 226.357 476.263 231.447 469.183 235.019C462.102 238.591 453.9 240.377 444.595 240.377H407.762V294.784H390.155V153.216H444.604C453.919 153.216 462.142 155.003 469.302 158.575H469.282ZM442.966 224.203C452.281 224.203 459.699 221.713 465.23 216.722C470.762 211.731 473.532 205.063 473.532 196.698C473.532 188.333 470.802 181.695 465.34 176.773C459.878 171.851 452.489 169.39 443.174 169.39H407.752V224.194H442.966V224.203Z" fill="#001A72"/>
<path d="M505.519 270.721C501.199 262.763 499.044 253.594 499.044 243.215C499.044 232.836 501.199 223.668 505.519 215.71C509.839 207.752 515.877 201.55 523.633 197.105C531.388 192.659 540.266 190.427 550.247 190.427C560.227 190.427 569.105 192.649 576.861 197.105C584.617 201.55 590.654 207.752 594.974 215.71C599.294 223.668 601.449 232.836 601.449 243.215C601.449 253.594 599.294 262.763 594.974 270.721C590.654 278.679 584.617 284.881 576.861 289.326C569.105 293.771 560.227 296.004 550.247 296.004C540.266 296.004 531.388 293.781 523.633 289.326C515.877 284.881 509.839 278.679 505.519 270.721ZM580.197 262.833C583.028 257.038 584.448 250.499 584.448 243.215C584.448 235.932 583.028 229.393 580.197 223.598C577.367 217.803 573.345 213.288 568.152 210.044C562.958 206.809 556.99 205.192 550.237 205.192C543.484 205.192 537.516 206.809 532.322 210.044C527.128 213.279 523.116 217.793 520.276 223.598C517.446 229.393 516.026 235.932 516.026 243.215C516.026 250.499 517.446 257.038 520.276 262.833C523.106 268.627 527.128 273.142 532.322 276.387C537.516 279.622 543.484 281.239 550.237 281.239C556.99 281.239 562.958 279.622 568.152 276.387C573.345 273.152 577.357 268.637 580.197 262.833Z" fill="#001A72"/>
<path d="M715.701 214.896C719.951 222.854 722.077 232.29 722.077 243.205C722.077 254.12 719.951 262.753 715.701 270.711C711.451 278.669 705.552 284.871 697.995 289.316C690.438 293.762 681.937 295.994 672.493 295.994C664.131 295.994 656.971 294.476 651.043 291.44C645.104 288.403 640.447 284.256 637.08 279.006V335.229H620.486V191.637H634.856L637.08 208.218C645.72 196.35 657.527 190.417 672.503 190.417C682.086 190.417 690.616 192.51 698.104 196.688C705.592 200.865 711.461 206.938 715.711 214.886L715.701 214.896ZM705.075 243.215C705.075 232.023 701.937 222.894 695.661 215.809C689.385 208.734 681.123 205.192 670.864 205.192C664.25 205.192 658.352 206.779 653.158 209.945C647.964 213.11 643.952 217.565 641.112 223.291C638.282 229.016 636.862 235.525 636.862 242.808C636.862 250.092 638.282 256.869 641.112 262.733C643.942 268.598 647.964 273.152 653.158 276.387C658.352 279.622 664.26 281.239 670.864 281.239C681.123 281.239 689.385 277.697 695.661 270.622C701.937 263.547 705.075 254.408 705.075 243.215Z" fill="#001A72"/>
<path d="M787.658 295.994C777.678 295.994 768.899 293.771 761.342 289.316C753.785 284.871 747.916 278.629 743.735 270.612C739.554 262.594 737.459 253.386 737.459 243.007C737.459 232.628 739.584 223.459 743.835 215.501C748.085 207.543 754.053 201.381 761.749 196.995C769.446 192.61 778.284 190.427 788.264 190.427C800.409 190.427 810.429 193.661 818.324 200.131C826.219 206.601 831.175 215.501 833.2 226.823H816.398C814.779 220.215 811.403 214.955 806.278 211.046C801.154 207.136 794.948 205.182 787.658 205.182C777.807 205.182 769.813 208.684 763.676 215.7C757.539 222.715 754.47 231.814 754.47 242.997C754.47 254.18 757.539 263.527 763.676 270.602C769.813 277.677 777.807 281.219 787.658 281.219C795.216 281.219 801.561 279.264 806.686 275.355C811.81 271.445 815.117 266.047 816.606 259.181H833.2C831.045 270.642 825.981 279.642 818.016 286.181C810.052 292.72 799.933 295.994 787.658 295.994Z" fill="#001A72"/>
<path d="M853.032 270.721C848.712 262.763 846.557 253.594 846.557 243.215C846.557 232.836 848.712 223.668 853.032 215.71C857.352 207.752 863.389 201.55 871.145 197.105C878.901 192.659 887.779 190.427 897.759 190.427C907.74 190.427 916.618 192.649 924.374 197.105C932.129 201.55 938.167 207.752 942.487 215.71C946.807 223.668 948.962 232.836 948.962 243.215C948.962 253.594 946.807 262.763 942.487 270.721C938.167 278.679 932.129 284.881 924.374 289.326C916.618 293.771 907.74 296.004 897.759 296.004C887.779 296.004 878.901 293.781 871.145 289.326C863.389 284.881 857.352 278.679 853.032 270.721ZM927.72 262.833C930.55 257.038 931.971 250.499 931.971 243.215C931.971 235.932 930.55 229.393 927.72 223.598C924.89 217.803 920.868 213.288 915.674 210.044C910.481 206.809 904.512 205.192 897.759 205.192C891.007 205.192 885.038 206.809 879.845 210.044C874.651 213.279 870.639 217.793 867.799 223.598C864.968 229.393 863.548 235.932 863.548 243.215C863.548 250.499 864.968 257.038 867.799 262.833C870.629 268.627 874.651 273.142 879.845 276.387C885.038 279.622 891.007 281.239 897.759 281.239C904.512 281.239 910.481 279.622 915.674 276.387C920.868 273.152 924.88 268.637 927.72 262.833Z" fill="#001A72"/>
<path d="M1020.42 207.821H1012.12C1002.27 207.821 995.219 211.125 990.969 217.734C986.718 224.342 984.593 232.499 984.593 242.203V294.784H967.999V191.647H982.369L984.593 207.216C987.562 202.493 991.405 198.722 996.132 195.894C1000.86 193.066 1007.4 191.647 1015.77 191.647H1020.42V207.821Z" fill="#001A72"/>
<path d="M1127.89 294.784H1111.3V238.363C1111.3 227.716 1108.9 219.589 1104.11 213.993C1099.32 208.397 1092.4 205.598 1083.36 205.598C1073.65 205.598 1066.02 208.972 1060.49 215.71C1054.96 222.447 1052.19 231.616 1052.19 243.215V294.784H1035.6V191.647H1049.97L1052.19 205.598C1060.02 195.487 1071.35 190.427 1086.19 190.427C1098.75 190.427 1108.83 194.197 1116.45 201.748C1124.08 209.3 1127.89 221.167 1127.89 237.341V294.784Z" fill="#001A72"/>
<path d="M210.698 141.23H201.115C200.51 135.872 200.043 119.896 212.943 106.203L219.855 112.702C207.858 125.443 210.579 140.585 210.698 141.23Z" fill="#001A72"/>
<path d="M174.432 140.238C165.772 140.238 158.731 133.202 158.731 124.55C158.731 115.897 165.772 108.852 174.432 108.852C183.091 108.852 190.132 115.887 190.132 124.55C190.132 133.212 183.091 140.238 174.432 140.238ZM174.432 118.338C171.006 118.338 168.225 121.117 168.225 124.54C168.225 127.963 171.006 130.742 174.432 130.742C177.858 130.742 180.638 127.963 180.638 124.54C180.638 121.117 177.858 118.338 174.432 118.338Z" fill="#001A72"/>
<path d="M265.178 140.238C256.518 140.238 249.478 133.202 249.478 124.55C249.478 115.897 256.518 108.852 265.178 108.852C273.838 108.852 280.878 115.887 280.878 124.55C280.878 133.212 273.838 140.238 265.178 140.238ZM265.178 118.338C261.752 118.338 258.971 121.117 258.971 124.54C258.971 127.963 261.752 130.742 265.178 130.742C268.604 130.742 271.385 127.963 271.385 124.54C271.385 121.117 268.604 118.338 265.178 118.338Z" fill="#001A72"/>
<path d="M234.125 106.104C225.465 106.104 218.425 99.0683 218.425 90.4157C218.425 81.7631 225.465 74.718 234.125 74.718C242.784 74.718 249.825 81.7532 249.825 90.4157C249.825 99.0782 242.784 106.104 234.125 106.104ZM234.125 84.214C230.699 84.214 227.918 86.9924 227.918 90.4157C227.918 93.8391 230.699 96.6174 234.125 96.6174C237.551 96.6174 240.332 93.8391 240.332 90.4157C240.332 86.9924 237.551 84.214 234.125 84.214Z" fill="#001A72"/>
<path d="M287.502 170.105C287.502 160.539 278.127 152.76 266.608 152.76C260.302 152.76 254.641 155.102 250.808 158.783C246.975 155.102 241.315 152.76 234.999 152.76C228.683 152.76 223.042 155.102 219.199 158.783C215.366 155.102 209.715 152.76 203.399 152.76C197.083 152.76 191.344 155.141 187.51 158.872C183.786 155.419 178.404 153.236 172.406 153.236C161.214 153.236 152.098 160.807 152.098 170.105C152.098 170.819 152.167 171.534 152.276 172.268V172.298C152.276 172.298 152.276 172.328 152.276 172.337L162.505 286.389L194.948 294.774H279.111L287.403 171.752V171.623C287.462 171.107 287.492 170.591 287.492 170.095L287.502 170.105ZM172.088 279.026L162.316 169.956C162.426 165.957 166.904 162.732 172.406 162.732C177.907 162.732 182.505 166.047 182.505 170.115C182.505 170.204 182.505 170.303 182.505 170.403V170.512C182.525 170.899 182.545 171.296 182.595 171.702V171.812C182.595 171.881 182.615 171.951 182.624 172.03L190.132 283.69L172.088 279.026ZM200.47 285.298L192.793 171.206L192.724 170.055C192.764 165.749 197.54 162.266 203.419 162.266C209.298 162.266 214.114 165.789 214.114 170.115H224.313C224.313 165.789 229.11 162.266 235.009 162.266C240.907 162.266 245.714 165.789 245.714 170.115H255.913C255.913 165.789 260.709 162.266 266.608 162.266C272.507 162.266 277.283 165.779 277.303 170.095L269.547 285.307H200.48L200.47 285.298Z" fill="#001A72"/>
<path d="M235.823 256.8C231.066 256.8 226.319 255.281 222.536 252.374C216.091 247.413 213.171 239.137 214.522 229.651C217.739 207.216 234.562 194.574 235.277 194.048L238.603 191.597C240.619 190.109 243.45 191.707 243.211 194.197L242.824 198.305C242.109 205.896 244.582 212.018 251.94 220.869C256.856 226.793 258.743 234.047 257.104 240.774C255.555 247.174 251.017 252.255 244.333 255.093C241.632 256.244 238.723 256.8 235.833 256.8H235.823ZM233.936 208.466C229.825 213.487 225.108 221.157 223.698 231.001C222.824 237.083 224.383 242.005 228.097 244.863C231.523 247.492 236.349 248.087 240.391 246.371C244.294 244.714 246.806 242.005 247.65 238.552C248.574 234.771 247.392 230.534 244.403 226.952C238.832 220.244 235.455 214.4 233.946 208.486L233.936 208.466Z" fill="#001A72"/>
</svg>
