<svg width="136" height="221" viewBox="0 0 136 221" fill="none" xmlns="http://www.w3.org/2000/svg">
<style>
    @media (prefers-color-scheme: dark) {
      path {
         fill: #fffae1;
      }
    }
  </style>
<path d="M58.6985 67.2298H49.1154C48.5097 61.8715 48.0429 45.8959 60.9428 32.2026L67.8545 38.702C55.8583 51.4427 58.5793 66.5848 58.6985 67.2298Z" fill="#001A72"/>
<path d="M22.4318 66.2375C13.7723 66.2375 6.73145 59.2023 6.73145 50.5497C6.73145 41.8971 13.7723 34.852 22.4318 34.852C31.0913 34.852 38.1321 41.8872 38.1321 50.5497C38.1321 59.2122 31.0913 66.2375 22.4318 66.2375ZM22.4318 44.3381C19.0057 44.3381 16.2251 47.1164 16.2251 50.5398C16.2251 53.9631 19.0057 56.7415 22.4318 56.7415C25.8579 56.7415 28.6384 53.9631 28.6384 50.5398C28.6384 47.1164 25.8579 44.3381 22.4318 44.3381Z" fill="#001A72"/>
<path d="M113.178 66.2375C104.518 66.2375 97.4777 59.2023 97.4777 50.5497C97.4777 41.8971 104.518 34.852 113.178 34.852C121.838 34.852 128.878 41.8872 128.878 50.5497C128.878 59.2122 121.838 66.2375 113.178 66.2375ZM113.178 44.3381C109.752 44.3381 106.971 47.1164 106.971 50.5398C106.971 53.9631 109.752 56.7415 113.178 56.7415C116.604 56.7415 119.385 53.9631 119.385 50.5398C119.385 47.1164 116.604 44.3381 113.178 44.3381Z" fill="#001A72"/>
<path d="M82.1249 32.1034C73.4654 32.1034 66.4245 25.0682 66.4245 16.4156C66.4245 7.76301 73.4654 0.717896 82.1249 0.717896C90.7844 0.717896 97.8252 7.75309 97.8252 16.4156C97.8252 25.0781 90.7844 32.1034 82.1249 32.1034ZM82.1249 10.2139C78.6988 10.2139 75.9182 12.9923 75.9182 16.4156C75.9182 19.8389 78.6988 22.6173 82.1249 22.6173C85.5509 22.6173 88.3315 19.8389 88.3315 16.4156C88.3315 12.9923 85.5509 10.2139 82.1249 10.2139Z" fill="#001A72"/>
<path d="M135.502 96.1048C135.502 86.5393 126.127 78.7599 114.608 78.7599C108.302 78.7599 102.641 81.1017 98.8082 84.783C94.975 81.1017 89.3145 78.7599 82.9986 78.7599C76.6827 78.7599 71.0421 81.1017 67.199 84.783C63.3658 81.1017 57.7152 78.7599 51.3993 78.7599C45.0835 78.7599 39.3435 81.1414 35.5103 84.8723C31.7863 81.4192 26.4039 79.2362 20.4058 79.2362C9.21398 79.2362 0.0976562 86.8073 0.0976562 96.1048C0.0976562 96.8193 0.167163 97.5337 0.2764 98.268V98.2977C0.2764 98.2977 0.2764 98.3275 0.2764 98.3374L10.505 212.389L42.9484 220.774H127.111L135.403 97.752V97.623C135.462 97.107 135.492 96.591 135.492 96.0949L135.502 96.1048ZM20.088 205.026L10.3163 95.956C10.4255 91.9571 14.9042 88.7323 20.4058 88.7323C25.9074 88.7323 30.5053 92.0465 30.5053 96.1148C30.5053 96.2041 30.5053 96.3033 30.5053 96.4025V96.5117C30.5251 96.8986 30.545 97.2955 30.5946 97.7024V97.8115C30.5946 97.881 30.6145 97.9504 30.6244 98.0298L38.132 209.69L20.088 205.026ZM48.4698 211.297L40.7934 97.2062L40.7239 96.0552C40.7636 91.7488 45.5403 88.2659 51.4192 88.2659C57.2981 88.2659 62.1145 91.7885 62.1145 96.1148H72.3133C72.3133 91.7885 77.1098 88.2659 83.0086 88.2659C88.9074 88.2659 93.7138 91.7885 93.7138 96.1148H103.913C103.913 91.7885 108.709 88.2659 114.608 88.2659C120.507 88.2659 125.283 91.7785 125.303 96.0949L117.547 211.307H48.4797L48.4698 211.297Z" fill="#001A72"/>
<path d="M83.8229 182.799C79.0661 182.799 74.3193 181.281 70.5357 178.374C64.0907 173.413 61.1711 165.137 62.5217 155.651C65.7392 133.216 82.5617 120.574 83.2767 120.048L86.6035 117.597C88.6194 116.109 91.4496 117.707 91.2113 120.197L90.824 124.305C90.109 131.896 92.5817 138.018 99.9403 146.869C104.856 152.793 106.743 160.047 105.104 166.774C103.555 173.174 99.0167 178.255 92.3334 181.093C89.6323 182.244 86.7226 182.799 83.8328 182.799H83.8229ZM81.9361 134.466C77.8248 139.487 73.1077 147.157 71.6976 157C70.8237 163.083 72.3828 168.005 76.0968 170.862C79.5229 173.492 84.3492 174.087 88.391 172.371C92.2937 170.714 94.8062 168.005 95.6503 164.552C96.5738 160.771 95.3921 156.534 92.403 152.952C86.8319 146.244 83.4554 140.4 81.946 134.486L81.9361 134.466Z" fill="#001A72"/>
</svg>
