<svg width="299" height="80" viewBox="0 0 299 80" fill="none" xmlns="http://www.w3.org/2000/svg">
<style>
        @media (prefers-color-scheme: dark) {
            path {
                fill: #FFFAE1;
            }
        }
</style>
<path d="M97.1908 25.7515C99.3817 26.8485 101.067 28.4026 102.245 30.4106C103.423 32.4187 104.013 34.7681 104.013 37.4587C104.013 40.1493 103.414 42.5109 102.215 44.5373C101.016 46.5667 99.3299 48.1299 97.1603 49.2268C94.9907 50.3238 92.4773 50.8723 89.6261 50.8723H78.3399V67.5798H72.9448V24.1061H89.6291C92.4834 24.1061 95.0029 24.6546 97.1969 25.7515H97.1908ZM89.1271 45.9054C91.9813 45.9054 94.2544 45.1406 95.9493 43.6079C97.6442 42.0752 98.4931 40.0275 98.4931 37.4587C98.4931 34.89 97.6563 32.8514 95.9827 31.34C94.3091 29.8286 92.0452 29.0729 89.191 29.0729H78.3369V45.9024H89.1271V45.9054Z" fill="#001A72"/>
<path d="M108.294 60.1905C106.971 57.7467 106.31 54.9311 106.31 51.7438C106.31 48.5565 106.971 45.7409 108.294 43.2971C109.618 40.8532 111.468 38.9488 113.845 37.5836C116.221 36.2185 118.942 35.5329 122 35.5329C125.058 35.5329 127.778 36.2155 130.155 37.5836C132.531 38.9488 134.381 40.8532 135.705 43.2971C137.029 45.7409 137.689 48.5565 137.689 51.7438C137.689 54.9311 137.029 57.7467 135.705 60.1905C134.381 62.6343 132.531 64.5388 130.155 65.9039C127.778 67.269 125.058 67.9546 122 67.9546C118.942 67.9546 116.221 67.2721 113.845 65.9039C111.468 64.5388 109.618 62.6343 108.294 60.1905ZM131.177 57.768C132.044 55.9885 132.479 53.9804 132.479 51.7438C132.479 49.5072 132.044 47.4991 131.177 45.7195C130.31 43.94 129.077 42.5536 127.486 41.5571C125.895 40.5638 124.066 40.0671 121.997 40.0671C119.927 40.0671 118.099 40.5638 116.507 41.5571C114.916 42.5505 113.686 43.937 112.816 45.7195C111.949 47.4991 111.514 49.5072 111.514 51.7438C111.514 53.9804 111.949 55.9885 112.816 57.768C113.683 59.5475 114.916 60.934 116.507 61.9304C118.099 62.9238 119.927 63.4205 121.997 63.4205C124.066 63.4205 125.895 62.9238 127.486 61.9304C129.077 60.937 130.307 59.5506 131.177 57.768Z" fill="#001A72"/>
<path d="M172.698 43.0472C174 45.491 174.651 48.3889 174.651 51.7407C174.651 55.0926 174 57.7436 172.698 60.1874C171.395 62.6313 169.588 64.5357 167.272 65.9009C164.957 67.266 162.352 67.9516 159.458 67.9516C156.896 67.9516 154.702 67.4854 152.885 66.5529C151.066 65.6205 149.638 64.3468 148.607 62.7349V80H143.522V35.9047H147.925L148.607 40.9965C151.254 37.3521 154.872 35.5299 159.461 35.5299C162.397 35.5299 165.011 36.1728 167.306 37.4557C169.6 38.7385 171.398 40.6034 172.701 43.0441L172.698 43.0472ZM169.442 51.7438C169.442 48.3066 168.48 45.5032 166.557 43.3275C164.634 41.1549 162.102 40.0671 158.959 40.0671C156.932 40.0671 155.125 40.5546 153.533 41.5267C151.942 42.4987 150.713 43.8669 149.842 45.6251C148.975 47.3833 148.54 49.3822 148.54 51.6188C148.54 53.8555 148.975 55.9367 149.842 57.7375C150.71 59.5384 151.942 60.937 153.533 61.9304C155.125 62.9238 156.935 63.4205 158.959 63.4205C162.102 63.4205 164.634 62.3326 166.557 60.16C168.48 57.9874 169.442 55.181 169.442 51.7438Z" fill="#001A72"/>
<path d="M194.747 67.9516C191.689 67.9516 188.999 67.269 186.683 65.9009C184.367 64.5357 182.569 62.6191 181.288 60.157C180.007 57.6949 179.365 54.8671 179.365 51.6798C179.365 48.4925 180.016 45.6769 181.318 43.2331C182.621 40.7892 184.449 38.897 186.808 37.5501C189.166 36.2033 191.874 35.5329 194.932 35.5329C198.654 35.5329 201.724 36.5263 204.143 38.513C206.562 40.4998 208.081 43.2331 208.701 46.7099H203.553C203.057 44.6805 202.022 43.0655 200.452 41.8649C198.882 40.6643 196.98 40.064 194.747 40.064C191.728 40.064 189.279 41.1397 187.398 43.294C185.518 45.4484 184.577 48.2426 184.577 51.6767C184.577 55.1109 185.518 57.9813 187.398 60.1539C189.279 62.3265 191.728 63.4144 194.747 63.4144C197.062 63.4144 199.007 62.8141 200.577 61.6135C202.147 60.4129 203.16 58.7553 203.617 56.6467H208.701C208.041 60.1661 206.489 62.9299 204.049 64.938C201.608 66.946 198.508 67.9516 194.747 67.9516Z" fill="#001A72"/>
<path d="M214.778 60.1905C213.455 57.7467 212.794 54.9311 212.794 51.7438C212.794 48.5565 213.455 45.7409 214.778 43.2971C216.102 40.8532 217.952 38.9488 220.328 37.5836C222.705 36.2185 225.425 35.5329 228.483 35.5329C231.542 35.5329 234.262 36.2155 236.638 37.5836C239.015 38.9488 240.865 40.8532 242.189 43.2971C243.512 45.7409 244.173 48.5565 244.173 51.7438C244.173 54.9311 243.512 57.7467 242.189 60.1905C240.865 62.6343 239.015 64.5388 236.638 65.9039C234.262 67.269 231.542 67.9546 228.483 67.9546C225.425 67.9546 222.705 67.2721 220.328 65.9039C217.952 64.5388 216.102 62.6343 214.778 60.1905ZM237.664 57.768C238.531 55.9885 238.966 53.9804 238.966 51.7438C238.966 49.5072 238.531 47.4991 237.664 45.7195C236.797 43.94 235.564 42.5536 233.973 41.5571C232.381 40.5638 230.553 40.0671 228.483 40.0671C226.414 40.0671 224.586 40.5638 222.994 41.5571C221.403 42.5505 220.173 43.937 219.303 45.7195C218.436 47.4991 218.001 49.5072 218.001 51.7438C218.001 53.9804 218.436 55.9885 219.303 57.768C220.17 59.5475 221.403 60.934 222.994 61.9304C224.586 62.9238 226.414 63.4205 228.483 63.4205C230.553 63.4205 232.381 62.9238 233.973 61.9304C235.564 60.937 236.794 59.5506 237.664 57.768Z" fill="#001A72"/>
<path d="M266.07 40.8746H263.526C260.507 40.8746 258.347 41.8893 257.044 43.9187C255.742 45.9481 255.091 48.4528 255.091 51.433V67.5798H250.006V35.9077H254.409L255.091 40.6887C256.001 39.2383 257.178 38.0803 258.627 37.2119C260.075 36.3435 262.08 35.9077 264.642 35.9077H266.07V40.8746Z" fill="#001A72"/>
<path d="M299 67.5798H293.915V50.2537C293.915 46.9841 293.182 44.4885 291.712 42.7699C290.246 41.0513 288.125 40.192 285.356 40.192C282.38 40.192 280.043 41.228 278.348 43.2971C276.653 45.3661 275.804 48.1817 275.804 51.7438V67.5798H270.719V35.9077H275.122L275.804 40.192C278.202 37.087 281.674 35.5329 286.223 35.5329C290.069 35.5329 293.158 36.6908 295.495 39.0097C297.832 41.3286 299 44.973 299 49.9399V67.5798Z" fill="#001A72"/>
<path d="M17.9562 20.4251H15.0198C14.8342 18.7796 14.6912 13.8737 18.6439 9.66862L20.7618 11.6645C17.086 15.5771 17.9197 20.227 17.9562 20.4251Z" fill="#001A72"/>
<path d="M6.8435 20.1204C4.19008 20.1204 2.03265 17.9599 2.03265 15.3028C2.03265 12.6457 4.19008 10.4822 6.8435 10.4822C9.49693 10.4822 11.6544 12.6426 11.6544 15.3028C11.6544 17.963 9.49693 20.1204 6.8435 20.1204ZM6.8435 13.3953C5.7937 13.3953 4.94168 14.2485 4.94168 15.2998C4.94168 16.351 5.7937 17.2042 6.8435 17.2042C7.89331 17.2042 8.74533 16.351 8.74533 15.2998C8.74533 14.2485 7.89331 13.3953 6.8435 13.3953Z" fill="#001A72"/>
<path d="M34.6497 20.1204C31.9963 20.1204 29.8388 17.9599 29.8388 15.3028C29.8388 12.6457 31.9963 10.4822 34.6497 10.4822C37.3031 10.4822 39.4605 12.6426 39.4605 15.3028C39.4605 17.963 37.3031 20.1204 34.6497 20.1204ZM34.6497 13.3953C33.5999 13.3953 32.7479 14.2485 32.7479 15.2998C32.7479 16.351 33.5999 17.2042 34.6497 17.2042C35.6995 17.2042 36.5515 16.351 36.5515 15.2998C36.5515 14.2485 35.6995 13.3953 34.6497 13.3953Z" fill="#001A72"/>
<path d="M25.1345 9.63815C22.4811 9.63815 20.3236 7.47772 20.3236 4.8206C20.3236 2.16348 22.4811 0 25.1345 0C27.7879 0 29.9453 2.16043 29.9453 4.8206C29.9453 7.48076 27.7879 9.63815 25.1345 9.63815ZM25.1345 2.91613C24.0847 2.91613 23.2327 3.76933 23.2327 4.8206C23.2327 5.87187 24.0847 6.72507 25.1345 6.72507C26.1843 6.72507 27.0363 5.87187 27.0363 4.8206C27.0363 3.76933 26.1843 2.91613 25.1345 2.91613Z" fill="#001A72"/>
<path d="M41.4902 29.2922C41.4902 26.3548 38.6176 23.9658 35.0879 23.9658C33.1556 23.9658 31.4212 24.685 30.2466 25.8154C29.072 24.685 27.3376 23.9658 25.4023 23.9658C23.467 23.9658 21.7386 24.685 20.561 25.8154C19.3864 24.685 17.655 23.9658 15.7197 23.9658C13.7844 23.9658 12.0256 24.6971 10.851 25.8429C9.70995 24.7825 8.06068 24.1121 6.22276 24.1121C2.7934 24.1121 0 26.4371 0 29.2922C0 29.5116 0.0212982 29.731 0.0547703 29.9565V29.9657C0.0547703 29.9657 0.0547703 29.9748 0.0547703 29.9779L3.18898 65.0019L13.1302 67.5767H38.9189L41.4597 29.7981V29.7585C41.478 29.6 41.4871 29.4416 41.4871 29.2892L41.4902 29.2922ZM6.12539 62.7409L3.13116 29.2465C3.16463 28.0185 4.53699 27.0282 6.22276 27.0282C7.90854 27.0282 9.31741 28.046 9.31741 29.2953C9.31741 29.3227 9.31741 29.3532 9.31741 29.3837V29.4172C9.32349 29.536 9.32958 29.6579 9.34479 29.7828V29.8164C9.34479 29.8377 9.35088 29.859 9.35392 29.8834L11.6544 64.173L6.12539 62.7409ZM14.822 64.6667L12.4699 29.6305L12.4486 29.277C12.4607 27.9545 13.9244 26.885 15.7258 26.885C17.5272 26.885 19.003 27.9667 19.003 29.2953H22.1281C22.1281 27.9667 23.5978 26.885 25.4053 26.885C27.2128 26.885 28.6856 27.9667 28.6856 29.2953H31.8106C31.8106 27.9667 33.2804 26.885 35.0879 26.885C36.8954 26.885 38.359 27.9637 38.3651 29.2892L35.9886 64.6697H14.8251L14.822 64.6667Z" fill="#001A72"/>
<path d="M25.6548 55.9152C24.1973 55.9152 22.7428 55.449 21.5834 54.5562C19.6086 53.0326 18.7139 50.4913 19.1278 47.5782C20.1137 40.6886 25.2684 36.8065 25.4875 36.645L26.5068 35.8924C27.1246 35.4353 27.9918 35.9259 27.9188 36.6907L27.8001 37.9523C27.581 40.2833 28.3387 42.1634 30.5935 44.8815C32.0997 46.7006 32.6779 48.9281 32.1758 50.9941C31.7011 52.9595 30.3105 54.5196 28.2626 55.3911C27.4349 55.7446 26.5434 55.9152 25.6579 55.9152H25.6548ZM25.0767 41.0725C23.8169 42.6144 22.3715 44.9699 21.9394 47.9926C21.6716 49.8605 22.1494 51.3719 23.2874 52.2495C24.3372 53.057 25.8161 53.2398 27.0546 52.7127C28.2504 52.2038 29.0203 51.3719 29.2789 50.3115C29.5619 49.1506 29.1998 47.8494 28.2839 46.7494C26.5768 44.6895 25.5422 42.8947 25.0797 41.0786L25.0767 41.0725Z" fill="#001A72"/>
</svg>
