<svg width="49" height="80" viewBox="0 0 49 80" fill="none" xmlns="http://www.w3.org/2000/svg">
<style>
        @media (prefers-color-scheme: dark) {
            path {
                fill: #FFFAE1;
            }
        }
</style>
<path d="M21.2064 24.18H17.7385C17.5192 22.232 17.3503 16.4242 22.0185 11.4461L24.5197 13.8089C20.1786 18.4407 21.1632 23.9455 21.2064 24.18Z" fill="#001A72"/>
<path d="M8.0822 23.8193C4.9485 23.8193 2.40057 21.2617 2.40057 18.1161C2.40057 14.9705 4.9485 12.4093 8.0822 12.4093C11.2159 12.4093 13.7638 14.9669 13.7638 18.1161C13.7638 21.2653 11.2159 23.8193 8.0822 23.8193ZM8.0822 15.8579C6.84238 15.8579 5.83614 16.8679 5.83614 18.1125C5.83614 19.357 6.84238 20.367 8.0822 20.367C9.32202 20.367 10.3283 19.357 10.3283 18.1125C10.3283 16.8679 9.32202 15.8579 8.0822 15.8579Z" fill="#001A72"/>
<path d="M40.9214 23.8193C37.7877 23.8193 35.2397 21.2617 35.2397 18.1161C35.2397 14.9705 37.7877 12.4093 40.9214 12.4093C44.0551 12.4093 46.603 14.9669 46.603 18.1161C46.603 21.2653 44.0551 23.8193 40.9214 23.8193ZM40.9214 15.8579C39.6815 15.8579 38.6753 16.8679 38.6753 18.1125C38.6753 19.357 39.6815 20.367 40.9214 20.367C42.1612 20.367 43.1674 19.357 43.1674 18.1125C43.1674 16.8679 42.1612 15.8579 40.9214 15.8579Z" fill="#001A72"/>
<path d="M29.6839 11.41C26.5502 11.41 24.0023 8.85242 24.0023 5.70681C24.0023 2.56121 26.5502 0 29.6839 0C32.8176 0 35.3655 2.55761 35.3655 5.70681C35.3655 8.85602 32.8176 11.41 29.6839 11.41ZM29.6839 3.45223C28.4441 3.45223 27.4378 4.46228 27.4378 5.70681C27.4378 6.95135 28.4441 7.9614 29.6839 7.9614C30.9237 7.9614 31.9299 6.95135 31.9299 5.70681C31.9299 4.46228 30.9237 3.45223 29.6839 3.45223Z" fill="#001A72"/>
<path d="M49 34.6773C49 31.1999 45.6076 28.3717 41.4389 28.3717C39.1569 28.3717 37.1085 29.223 35.7213 30.5614C34.3341 29.223 32.2857 28.3717 30.0001 28.3717C27.7146 28.3717 25.6733 29.223 24.2826 30.5614C22.8954 29.223 20.8506 28.3717 18.565 28.3717C16.2794 28.3717 14.2023 29.2375 12.8151 30.5938C11.4675 29.3385 9.51969 28.5449 7.3491 28.5449C3.29901 28.5449 0 31.2973 0 34.6773C0 34.9371 0.0251532 35.1968 0.0646838 35.4637V35.4746C0.0646838 35.4746 0.0646838 35.4854 0.0646838 35.489L3.76619 76.9518L15.5068 80H45.9633L48.9641 35.2762V35.2293C48.9856 35.0417 48.9964 34.8541 48.9964 34.6737L49 34.6773ZM7.2341 74.2751L3.69791 34.6232C3.73744 33.1695 5.35819 31.9971 7.3491 31.9971C9.34001 31.9971 11.0039 33.2019 11.0039 34.6809C11.0039 34.7134 11.0039 34.7495 11.0039 34.7856V34.8252C11.0111 34.9659 11.0183 35.1102 11.0362 35.2581V35.2978C11.0362 35.323 11.0434 35.3483 11.047 35.3772L13.7638 75.9706L7.2341 74.2751ZM17.5049 76.555L14.727 35.0778L14.7018 34.6593C14.7162 33.0937 16.4447 31.8275 18.5722 31.8275C20.6997 31.8275 22.4426 33.1081 22.4426 34.6809H26.1333C26.1333 33.1081 27.8691 31.8275 30.0037 31.8275C32.1384 31.8275 33.8777 33.1081 33.8777 34.6809H37.5685C37.5685 33.1081 39.3042 31.8275 41.4389 31.8275C43.5735 31.8275 45.3021 33.1045 45.3093 34.6737L42.5026 76.5586H17.5085L17.5049 76.555Z" fill="#001A72"/>
<path d="M30.2984 66.1947C28.577 66.1947 26.8593 65.6428 25.4901 64.5858C23.1578 62.7821 22.1012 59.7736 22.59 56.325C23.7543 48.1688 29.842 43.573 30.1008 43.3819L31.3047 42.4908C32.0342 41.9497 33.0584 42.5305 32.9721 43.436L32.832 44.9294C32.5732 47.689 33.4681 49.9147 36.131 53.1325C37.9099 55.2861 38.5927 57.923 37.9997 60.3688C37.4391 62.6956 35.7968 64.5425 33.3782 65.5742C32.4007 65.9927 31.3478 66.1947 30.302 66.1947H30.2984ZM29.6156 48.6233C28.1278 50.4486 26.4208 53.2371 25.9105 56.8156C25.5943 59.0269 26.1585 60.8161 27.5025 61.855C28.7424 62.811 30.4889 63.0274 31.9515 62.4034C33.3638 61.8009 34.273 60.8161 34.5785 59.5608C34.9127 58.1864 34.4851 56.646 33.4034 55.3438C31.3873 52.9052 30.1655 50.7805 29.6192 48.6305L29.6156 48.6233Z" fill="#001A72"/>
</svg>
