<svg width="299" height="80" viewBox="0 0 299 80" fill="none" xmlns="http://www.w3.org/2000/svg">
<path d="M97.1908 25.7515C99.3817 26.8485 101.067 28.4025 102.245 30.4106C103.423 32.4187 104.013 34.768 104.013 37.4587C104.013 40.1493 103.414 42.5109 102.215 44.5372C101.016 46.5666 99.3299 48.1298 97.1603 49.2268C94.9907 50.3238 92.4773 50.8723 89.6261 50.8723H78.3399V67.5798H72.9448V24.106H89.6291C92.4834 24.106 95.0029 24.6545 97.1969 25.7515H97.1908ZM89.1271 45.9054C91.9813 45.9054 94.2544 45.1406 95.9493 43.6078C97.6442 42.0751 98.4931 40.0274 98.4931 37.4587C98.4931 34.8899 97.6563 32.8514 95.9827 31.34C94.3091 29.8286 92.0452 29.0729 89.191 29.0729H78.3369V45.9023H89.1271V45.9054Z" />
<path d="M108.294 60.1905C106.971 57.7466 106.31 54.9311 106.31 51.7437C106.31 48.5564 106.971 45.7408 108.294 43.297C109.618 40.8532 111.468 38.9487 113.845 37.5836C116.221 36.2185 118.942 35.5329 122 35.5329C125.058 35.5329 127.778 36.2154 130.155 37.5836C132.531 38.9487 134.381 40.8532 135.705 43.297C137.029 45.7408 137.689 48.5564 137.689 51.7437C137.689 54.9311 137.029 57.7466 135.705 60.1905C134.381 62.6343 132.531 64.5387 130.155 65.9039C127.778 67.269 125.058 67.9546 122 67.9546C118.942 67.9546 116.221 67.272 113.845 65.9039C111.468 64.5387 109.618 62.6343 108.294 60.1905ZM131.177 57.768C132.044 55.9884 132.479 53.9804 132.479 51.7437C132.479 49.5071 132.044 47.4991 131.177 45.7195C130.31 43.94 129.077 42.5535 127.486 41.5571C125.895 40.5637 124.066 40.067 121.997 40.067C119.927 40.067 118.099 40.5637 116.507 41.5571C114.916 42.5505 113.686 43.9369 112.816 45.7195C111.949 47.4991 111.514 49.5071 111.514 51.7437C111.514 53.9804 111.949 55.9884 112.816 57.768C113.683 59.5475 114.916 60.934 116.507 61.9304C118.099 62.9238 119.927 63.4204 121.997 63.4204C124.066 63.4204 125.895 62.9238 127.486 61.9304C129.077 60.937 130.307 59.5506 131.177 57.768Z" />
<path d="M172.698 43.0472C174 45.491 174.651 48.3888 174.651 51.7407C174.651 55.0926 174 57.7436 172.698 60.1874C171.395 62.6312 169.588 64.5357 167.272 65.9008C164.957 67.266 162.352 67.9516 159.458 67.9516C156.896 67.9516 154.702 67.4853 152.885 66.5529C151.066 65.6205 149.638 64.3468 148.607 62.7348V80H143.522V35.9046H147.925L148.607 40.9964C151.254 37.352 154.872 35.5298 159.461 35.5298C162.397 35.5298 165.011 36.1728 167.306 37.4556C169.6 38.7385 171.398 40.6033 172.701 43.0441L172.698 43.0472ZM169.442 51.7437C169.442 48.3066 168.48 45.5032 166.557 43.3275C164.634 41.1549 162.102 40.067 158.959 40.067C156.932 40.067 155.125 40.5546 153.533 41.5266C151.942 42.4987 150.713 43.8668 149.842 45.6251C148.975 47.3833 148.54 49.3822 148.54 51.6188C148.54 53.8554 148.975 55.9366 149.842 57.7375C150.71 59.5384 151.942 60.937 153.533 61.9304C155.125 62.9238 156.935 63.4204 158.959 63.4204C162.102 63.4204 164.634 62.3326 166.557 60.16C168.48 57.9874 169.442 55.1809 169.442 51.7437Z" />
<path d="M194.747 67.9516C191.689 67.9516 188.999 67.269 186.683 65.9008C184.367 64.5357 182.569 62.619 181.288 60.1569C180.007 57.6948 179.365 54.8671 179.365 51.6798C179.365 48.4924 180.016 45.6769 181.318 43.233C182.621 40.7892 184.449 38.8969 186.808 37.5501C189.166 36.2033 191.874 35.5329 194.932 35.5329C198.654 35.5329 201.724 36.5263 204.143 38.513C206.562 40.4997 208.081 43.233 208.701 46.7098H203.553C203.057 44.6804 202.022 43.0654 200.452 41.8649C198.882 40.6643 196.98 40.064 194.747 40.064C191.728 40.064 189.279 41.1396 187.398 43.294C185.518 45.4483 184.577 48.2426 184.577 51.6767C184.577 55.1109 185.518 57.9813 187.398 60.1539C189.279 62.3265 191.728 63.4143 194.747 63.4143C197.062 63.4143 199.007 62.8141 200.577 61.6135C202.147 60.4129 203.16 58.7553 203.617 56.6466H208.701C208.041 60.1661 206.489 62.9299 204.049 64.9379C201.608 66.946 198.508 67.9516 194.747 67.9516Z" />
<path d="M214.778 60.1905C213.455 57.7466 212.794 54.9311 212.794 51.7437C212.794 48.5564 213.455 45.7408 214.778 43.297C216.102 40.8532 217.952 38.9487 220.328 37.5836C222.705 36.2185 225.425 35.5329 228.483 35.5329C231.542 35.5329 234.262 36.2154 236.638 37.5836C239.015 38.9487 240.865 40.8532 242.189 43.297C243.512 45.7408 244.173 48.5564 244.173 51.7437C244.173 54.9311 243.512 57.7466 242.189 60.1905C240.865 62.6343 239.015 64.5387 236.638 65.9039C234.262 67.269 231.542 67.9546 228.483 67.9546C225.425 67.9546 222.705 67.272 220.328 65.9039C217.952 64.5387 216.102 62.6343 214.778 60.1905ZM237.664 57.768C238.531 55.9884 238.966 53.9804 238.966 51.7437C238.966 49.5071 238.531 47.4991 237.664 45.7195C236.797 43.94 235.564 42.5535 233.973 41.5571C232.381 40.5637 230.553 40.067 228.483 40.067C226.414 40.067 224.586 40.5637 222.994 41.5571C221.403 42.5505 220.173 43.9369 219.303 45.7195C218.436 47.4991 218.001 49.5071 218.001 51.7437C218.001 53.9804 218.436 55.9884 219.303 57.768C220.17 59.5475 221.403 60.934 222.994 61.9304C224.586 62.9238 226.414 63.4204 228.483 63.4204C230.553 63.4204 232.381 62.9238 233.973 61.9304C235.564 60.937 236.794 59.5506 237.664 57.768Z" />
<path d="M266.07 40.8745H263.526C260.507 40.8745 258.347 41.8892 257.044 43.9186C255.742 45.9481 255.091 48.4528 255.091 51.4329V67.5798H250.006V35.9077H254.409L255.091 40.6887C256.001 39.2382 257.178 38.0803 258.627 37.2119C260.075 36.3434 262.08 35.9077 264.642 35.9077H266.07V40.8745Z" />
<path d="M299 67.5798H293.915V50.2537C293.915 46.9841 293.182 44.4885 291.712 42.7699C290.246 41.0513 288.125 40.192 285.356 40.192C282.38 40.192 280.043 41.228 278.348 43.297C276.653 45.366 275.804 48.1816 275.804 51.7437V67.5798H270.719V35.9077H275.122L275.804 40.192C278.202 37.0869 281.674 35.5329 286.223 35.5329C290.069 35.5329 293.158 36.6908 295.495 39.0097C297.832 41.3286 299 44.973 299 49.9398V67.5798Z" />
<path d="M17.9563 20.4251H15.0199C14.8343 18.7796 14.6912 13.8737 18.644 9.66862L20.7619 11.6645C17.086 15.5771 17.9198 20.227 17.9563 20.4251Z" />
<path d="M6.84356 20.1204C4.19014 20.1204 2.03271 17.9599 2.03271 15.3028C2.03271 12.6457 4.19014 10.4822 6.84356 10.4822C9.49699 10.4822 11.6544 12.6426 11.6544 15.3028C11.6544 17.963 9.49699 20.1204 6.84356 20.1204ZM6.84356 13.3953C5.79376 13.3953 4.94174 14.2485 4.94174 15.2998C4.94174 16.351 5.79376 17.2042 6.84356 17.2042C7.89337 17.2042 8.74539 16.351 8.74539 15.2998C8.74539 14.2485 7.89337 13.3953 6.84356 13.3953Z" />
<path d="M34.6497 20.1204C31.9963 20.1204 29.8389 17.9599 29.8389 15.3028C29.8389 12.6457 31.9963 10.4822 34.6497 10.4822C37.3032 10.4822 39.4606 12.6426 39.4606 15.3028C39.4606 17.963 37.3032 20.1204 34.6497 20.1204ZM34.6497 13.3953C33.5999 13.3953 32.7479 14.2485 32.7479 15.2998C32.7479 16.351 33.5999 17.2042 34.6497 17.2042C35.6995 17.2042 36.5516 16.351 36.5516 15.2998C36.5516 14.2485 35.6995 13.3953 34.6497 13.3953Z" />
<path d="M25.1345 9.63815C22.4811 9.63815 20.3237 7.47772 20.3237 4.8206C20.3237 2.16348 22.4811 0 25.1345 0C27.788 0 29.9454 2.16043 29.9454 4.8206C29.9454 7.48076 27.788 9.63815 25.1345 9.63815ZM25.1345 2.91613C24.0847 2.91613 23.2327 3.76933 23.2327 4.8206C23.2327 5.87187 24.0847 6.72507 25.1345 6.72507C26.1843 6.72507 27.0364 5.87187 27.0364 4.8206C27.0364 3.76933 26.1843 2.91613 25.1345 2.91613Z" />
<path d="M41.4902 29.2923C41.4902 26.3548 38.6176 23.9659 35.0879 23.9659C33.1556 23.9659 31.4212 24.685 30.2466 25.8155C29.072 24.685 27.3376 23.9659 25.4023 23.9659C23.467 23.9659 21.7386 24.685 20.561 25.8155C19.3864 24.685 17.655 23.9659 15.7197 23.9659C13.7844 23.9659 12.0256 24.6972 10.851 25.8429C9.70995 24.7825 8.06068 24.1121 6.22276 24.1121C2.7934 24.1121 0 26.4371 0 29.2923C0 29.5117 0.0212982 29.7311 0.0547703 29.9566V29.9657C0.0547703 29.9657 0.0547703 29.9749 0.0547703 29.9779L3.18898 65.0019L13.1302 67.5768H38.9189L41.4597 29.7981V29.7585C41.478 29.6001 41.4871 29.4416 41.4871 29.2893L41.4902 29.2923ZM6.12539 62.7409L3.13116 29.2466C3.16463 28.0186 4.53699 27.0283 6.22276 27.0283C7.90854 27.0283 9.31741 28.046 9.31741 29.2954C9.31741 29.3228 9.31741 29.3533 9.31741 29.3837V29.4172C9.32349 29.5361 9.32958 29.658 9.34479 29.7829V29.8164C9.34479 29.8377 9.35088 29.8591 9.35392 29.8835L11.6544 64.1731L6.12539 62.7409ZM14.822 64.6667L12.4699 29.6305L12.4486 29.2771C12.4607 27.9546 13.9244 26.8851 15.7258 26.8851C17.5272 26.8851 19.003 27.9668 19.003 29.2954H22.1281C22.1281 27.9668 23.5978 26.8851 25.4053 26.8851C27.2128 26.8851 28.6856 27.9668 28.6856 29.2954H31.8106C31.8106 27.9668 33.2804 26.8851 35.0879 26.8851C36.8954 26.8851 38.359 27.9637 38.3651 29.2893L35.9886 64.6698H14.8251L14.822 64.6667Z" />
<path d="M25.6548 55.9153C24.1973 55.9153 22.7428 55.4491 21.5834 54.5563C19.6086 53.0327 18.7139 50.4914 19.1278 47.5783C20.1137 40.6887 25.2684 36.8066 25.4875 36.6451L26.5068 35.8924C27.1246 35.4354 27.9918 35.926 27.9188 36.6908L27.8001 37.9523C27.581 40.2834 28.3387 42.1635 30.5935 44.8816C32.0997 46.7007 32.6779 48.9282 32.1758 50.9941C31.7011 52.9596 30.3105 54.5197 28.2626 55.3912C27.4349 55.7447 26.5434 55.9153 25.6579 55.9153H25.6548ZM25.0767 41.0726C23.8169 42.6145 22.3715 44.9699 21.9394 47.9927C21.6716 49.8606 22.1494 51.372 23.2874 52.2496C24.3372 53.0571 25.8161 53.2399 27.0546 52.7127C28.2504 52.2039 29.0203 51.372 29.2789 50.3116C29.5619 49.1506 29.1998 47.8495 28.2839 46.7495C26.5768 44.6896 25.5422 42.8948 25.0797 41.0787L25.0767 41.0726Z" />

<style>
path {
    fill: #301B05;
}

@media (prefers-color-scheme: dark) {
    path {
        fill: #FFFDF5;
    }
}
</style>
</svg>
